<?xml version="1.0" standalone="no"?>
<!DOCTYPE svg PUBLIC "-//W3C//DTD SVG 20010904//EN"
 "http://www.w3.org/TR/2001/REC-SVG-20010904/DTD/svg10.dtd">
<svg version="1.0" xmlns="http://www.w3.org/2000/svg"
 width="271.000000pt" height="271.000000pt" viewBox="0 0 271.000000 271.000000"
 preserveAspectRatio="xMidYMid meet">
<metadata>
Created by potrace 1.14, written by Peter Selinger 2001-2017
</metadata>
<g transform="translate(0.000000,271.000000) scale(0.100000,-0.100000)"
fill="#000000" stroke="none">
<path d="M510 2408 c-53 -27 -85 -72 -94 -130 -3 -24 -20 -173 -36 -333 -17
-159 -44 -418 -60 -575 -66 -627 -72 -699 -66 -726 4 -16 25 -44 45 -64 21
-19 44 -45 50 -58 27 -51 65 -62 211 -62 130 0 138 1 177 27 25 16 49 42 59
65 9 21 19 38 21 38 16 0 45 -25 63 -55 38 -62 79 -75 231 -75 156 0 203 16
246 81 14 22 27 39 29 39 19 0 55 -29 65 -51 23 -57 60 -69 215 -69 158 0 183
9 228 77 22 34 27 61 46 243 11 113 23 219 25 235 3 17 16 140 30 275 13 135
38 376 55 535 46 438 45 407 26 442 -8 17 -28 41 -43 53 -15 11 -35 34 -45 51
-34 55 -65 61 -317 57 -217 -3 -227 -4 -264 -27 -59 -36 -80 -78 -138 -271
-29 -99 -56 -174 -60 -168 -3 7 -9 60 -13 118 -9 141 -20 175 -69 226 -23 24
-51 55 -62 69 -35 46 -80 54 -305 55 -194 0 -208 -1 -250 -22z m463 -79 c14
-6 30 -21 36 -33 9 -18 27 -222 72 -851 12 -165 17 -194 29 -155 20 65 149
498 205 690 35 118 71 239 80 268 27 88 40 92 286 92 159 0 209 -3 224 -14 23
-16 28 46 -95 -1116 -17 -162 -37 -349 -44 -414 -11 -110 -14 -121 -40 -142
-25 -22 -36 -24 -134 -24 -59 0 -112 4 -118 8 -32 21 -34 49 -14 198 49 367
81 613 105 788 25 188 29 233 21 225 -4 -4 -131 -402 -282 -889 -91 -291 -88
-283 -124 -307 -29 -20 -45 -23 -141 -23 -105 0 -110 1 -138 28 -29 27 -29 28
-50 247 -12 121 -35 353 -51 515 -16 162 -33 328 -36 368 -4 40 -10 69 -14 65
-4 -4 -15 -100 -24 -213 -64 -792 -77 -938 -87 -963 -17 -41 -37 -47 -151 -47
-80 0 -109 4 -127 16 -28 20 -28 14 18 454 78 741 93 876 109 1034 24 222 3
206 263 206 124 0 207 -4 222 -11z"/>
<path d="M2277 1208 c-34 -27 -284 -552 -347 -733 -50 -142 -52 -153 -32 -224
25 -89 34 -91 173 -29 63 27 137 57 164 65 28 8 79 26 115 38 36 13 77 26 92
29 23 5 27 11 27 39 0 17 1 41 3 52 3 18 -3 20 -75 23 -43 2 -118 -4 -168 -13
-49 -8 -93 -15 -98 -15 -16 0 21 103 58 165 13 22 62 114 108 204 46 91 99
188 119 216 l35 52 -16 51 c-15 44 -23 54 -59 72 -49 23 -75 25 -99 8z"/>
</g>
</svg>
